# 3ds Max Wavefront OBJ Exporter v0.97b - (c)2007 guruware
# 创建的文件:28.10.2019 18:11:46

mtllib 台球杆.mtl

#
# object Cone001
#

v  0.0000 0.0000 -0.0000
v  0.1671 0.0965 0.0000
v  0.1863 0.0499 0.0000
v  0.1929 0.0000 -0.0000
v  0.0965 0.1671 0.0000
v  0.1364 0.1364 0.0000
v  0.0000 0.1929 0.0000
v  0.0499 0.1863 0.0000
v  -0.0965 0.1671 0.0000
v  -0.0499 0.1863 0.0000
v  -0.1671 0.0965 0.0000
v  -0.1364 0.1364 0.0000
v  -0.1929 0.0000 0.0000
v  -0.1863 0.0499 0.0000
v  -0.1671 -0.0965 -0.0000
v  -0.1863 -0.0499 -0.0000
v  -0.0965 -0.1671 -0.0000
v  -0.1364 -0.1364 -0.0000
v  -0.0000 -0.1929 -0.0000
v  -0.0499 -0.1863 -0.0000
v  0.0965 -0.1671 -0.0000
v  0.0499 -0.1863 -0.0000
v  0.1671 -0.0965 -0.0000
v  0.1364 -0.1364 -0.0000
v  0.1863 -0.0499 -0.0000
v  0.2632 0.0705 11.4173
v  0.2724 -0.0000 11.4173
v  0.2359 0.1362 11.4173
v  0.1926 0.1926 11.4173
v  0.1362 0.2359 11.4173
v  0.0705 0.2632 11.4173
v  0.0000 0.2724 11.4173
v  -0.0705 0.2632 11.4173
v  -0.1362 0.2359 11.4173
v  -0.1926 0.1926 11.4173
v  -0.2359 0.1362 11.4173
v  -0.2632 0.0705 11.4173
v  -0.2724 -0.0000 11.4173
v  -0.2632 -0.0705 11.4173
v  -0.2359 -0.1362 11.4173
v  -0.1926 -0.1926 11.4173
v  -0.1362 -0.2359 11.4173
v  -0.0705 -0.2632 11.4173
v  -0.0000 -0.2724 11.4173
v  0.0705 -0.2632 11.4173
v  0.1362 -0.2359 11.4173
v  0.1926 -0.1926 11.4173
v  0.2359 -0.1362 11.4173
v  0.2632 -0.0705 11.4173
v  0.3400 0.0911 22.8346
v  0.3520 -0.0000 22.8346
v  0.3048 0.1760 22.8346
v  0.2489 0.2489 22.8346
v  0.1760 0.3048 22.8346
v  0.0911 0.3400 22.8346
v  0.0000 0.3520 22.8346
v  -0.0911 0.3400 22.8346
v  -0.1760 0.3048 22.8346
v  -0.2489 0.2489 22.8346
v  -0.3048 0.1760 22.8346
v  -0.3400 0.0911 22.8346
v  -0.3520 -0.0000 22.8346
v  -0.3400 -0.0911 22.8346
v  -0.3048 -0.1760 22.8346
v  -0.2489 -0.2489 22.8346
v  -0.1760 -0.3048 22.8346
v  -0.0911 -0.3400 22.8346
v  -0.0000 -0.3520 22.8346
v  0.0911 -0.3400 22.8346
v  0.1760 -0.3048 22.8346
v  0.2489 -0.2489 22.8346
v  0.3048 -0.1760 22.8346
v  0.3400 -0.0911 22.8346
v  0.4168 0.1117 34.2520
v  0.4315 -0.0000 34.2520
v  0.3737 0.2157 34.2520
v  0.3051 0.3051 34.2520
v  0.2157 0.3737 34.2520
v  0.1117 0.4168 34.2520
v  0.0000 0.4315 34.2520
v  -0.1117 0.4168 34.2520
v  -0.2157 0.3737 34.2520
v  -0.3051 0.3051 34.2520
v  -0.3737 0.2157 34.2520
v  -0.4168 0.1117 34.2520
v  -0.4315 -0.0000 34.2520
v  -0.4168 -0.1117 34.2520
v  -0.3737 -0.2158 34.2520
v  -0.3051 -0.3051 34.2520
v  -0.2157 -0.3737 34.2520
v  -0.1117 -0.4168 34.2520
v  -0.0000 -0.4315 34.2520
v  0.1117 -0.4168 34.2520
v  0.2157 -0.3737 34.2520
v  0.3051 -0.3051 34.2520
v  0.3737 -0.2158 34.2520
v  0.4168 -0.1117 34.2520
v  0.4936 0.1323 45.6693
v  0.5110 -0.0000 45.6693
v  0.4426 0.2555 45.6693
v  0.3613 0.3613 45.6693
v  0.2555 0.4426 45.6693
v  0.1323 0.4936 45.6693
v  0.0000 0.5110 45.6693
v  -0.1323 0.4936 45.6693
v  -0.2555 0.4426 45.6693
v  -0.3613 0.3613 45.6693
v  -0.4426 0.2555 45.6693
v  -0.4936 0.1323 45.6693
v  -0.5110 -0.0000 45.6693
v  -0.4936 -0.1323 45.6693
v  -0.4426 -0.2555 45.6693
v  -0.3613 -0.3614 45.6693
v  -0.2555 -0.4426 45.6693
v  -0.1323 -0.4936 45.6693
v  -0.0000 -0.5110 45.6693
v  0.1323 -0.4936 45.6693
v  0.2555 -0.4426 45.6693
v  0.3613 -0.3614 45.6693
v  0.4426 -0.2555 45.6693
v  0.4936 -0.1323 45.6693
v  0.5704 0.1528 57.0866
v  0.5906 -0.0000 57.0866
v  0.5114 0.2953 57.0866
v  0.4176 0.4176 57.0866
v  0.2953 0.5114 57.0866
v  0.1528 0.5704 57.0866
v  0.0000 0.5905 57.0866
v  -0.1528 0.5704 57.0866
v  -0.2953 0.5114 57.0866
v  -0.4176 0.4176 57.0866
v  -0.5114 0.2953 57.0866
v  -0.5704 0.1528 57.0866
v  -0.5906 -0.0000 57.0866
v  -0.5704 -0.1529 57.0866
v  -0.5114 -0.2953 57.0866
v  -0.4176 -0.4176 57.0866
v  -0.2953 -0.5114 57.0866
v  -0.1528 -0.5704 57.0866
v  -0.0000 -0.5906 57.0866
v  0.1528 -0.5704 57.0866
v  0.2953 -0.5114 57.0866
v  0.4176 -0.4176 57.0866
v  0.5114 -0.2953 57.0866
v  0.5704 -0.1529 57.0866
v  0.0000 -0.0000 57.0866
# 146 vertices

vn 0.0000 0.0000 -1.0000
vn 0.6338 0.3659 -0.6814
vn 0.7070 0.1894 -0.6814
vn 0.7319 -0.0000 -0.6814
vn 0.3660 0.6338 -0.6814
vn 0.5175 0.5175 -0.6814
vn -0.0000 0.7319 -0.6814
vn 0.1894 0.7070 -0.6814
vn -0.3659 0.6338 -0.6814
vn -0.1894 0.7070 -0.6814
vn -0.6338 0.3659 -0.6814
vn -0.5175 0.5175 -0.6814
vn -0.7319 0.0000 -0.6814
vn -0.7070 0.1894 -0.6814
vn -0.6338 -0.3660 -0.6814
vn -0.7070 -0.1894 -0.6814
vn -0.3660 -0.6339 -0.6814
vn -0.5175 -0.5175 -0.6814
vn -0.0000 -0.7319 -0.6814
vn -0.1894 -0.7070 -0.6814
vn 0.3659 -0.6338 -0.6814
vn 0.1894 -0.7070 -0.6814
vn 0.6338 -0.3659 -0.6814
vn 0.5175 -0.5175 -0.6814
vn 0.7070 -0.1894 -0.6814
vn 0.9659 0.2588 -0.0070
vn 1.0000 -0.0000 -0.0070
vn 0.8660 0.5000 -0.0070
vn 0.7071 0.7071 -0.0070
vn 0.5000 0.8660 -0.0070
vn 0.2588 0.9659 -0.0070
vn 0.0000 1.0000 -0.0070
vn -0.2588 0.9659 -0.0070
vn -0.5000 0.8660 -0.0070
vn -0.7071 0.7071 -0.0070
vn -0.8660 0.5000 -0.0070
vn -0.9659 0.2588 -0.0070
vn -1.0000 0.0000 -0.0070
vn -0.9659 -0.2588 -0.0070
vn -0.8660 -0.5000 -0.0070
vn -0.7071 -0.7071 -0.0070
vn -0.5000 -0.8660 -0.0070
vn -0.2588 -0.9659 -0.0070
vn -0.0000 -1.0000 -0.0070
vn 0.2588 -0.9659 -0.0070
vn 0.5000 -0.8660 -0.0070
vn 0.7071 -0.7071 -0.0070
vn 0.8660 -0.5000 -0.0070
vn 0.9659 -0.2588 -0.0070
vn 0.7115 0.1906 0.6763
vn 0.7366 0.0000 0.6763
vn 0.6379 0.3683 0.6763
vn 0.5208 0.5208 0.6763
vn 0.3683 0.6379 0.6763
vn 0.1906 0.7115 0.6763
vn 0.0000 0.7366 0.6763
vn -0.1906 0.7115 0.6763
vn -0.3683 0.6379 0.6763
vn -0.5208 0.5209 0.6763
vn -0.6379 0.3683 0.6763
vn -0.7115 0.1906 0.6763
vn -0.7366 -0.0000 0.6763
vn -0.7115 -0.1906 0.6763
vn -0.6379 -0.3683 0.6763
vn -0.5209 -0.5209 0.6763
vn -0.3683 -0.6379 0.6763
vn -0.1906 -0.7115 0.6763
vn 0.0000 -0.7366 0.6763
vn 0.1906 -0.7115 0.6763
vn 0.3683 -0.6379 0.6763
vn 0.5209 -0.5209 0.6763
vn 0.6379 -0.3683 0.6763
vn 0.7115 -0.1906 0.6763
vn 0.0000 -0.0000 1.0000
# 74 vertex normals

vt 0.5000 0.0000 0.0000
vt 0.8333 0.0000 0.3267
vt 0.7917 0.0000 0.3267
vt 0.7500 0.0000 0.3267
vt 0.9167 0.0000 0.3267
vt 0.8750 0.0000 0.3267
vt 1.0000 0.0000 0.3267
vt 0.9583 0.0000 0.3267
vt 0.0833 0.0000 0.3267
vt 0.0417 0.0000 0.3267
vt -0.0000 0.0000 0.3267
vt 0.1667 0.0000 0.3267
vt 0.1250 0.0000 0.3267
vt 0.2500 0.0000 0.3267
vt 0.2083 0.0000 0.3267
vt 0.3333 0.0000 0.3267
vt 0.2917 0.0000 0.3267
vt 0.4167 0.0000 0.3267
vt 0.3750 0.0000 0.3267
vt 0.5000 0.0000 0.3267
vt 0.4583 0.0000 0.3267
vt 0.5833 0.0000 0.3267
vt 0.5417 0.0000 0.3267
vt 0.6667 0.0000 0.3267
vt 0.6250 0.0000 0.3267
vt 0.7083 0.0000 0.3267
vt 0.7917 0.2000 0.4613
vt 0.7500 0.2000 0.4613
vt 0.8333 0.2000 0.4613
vt 0.8750 0.2000 0.4613
vt 0.9167 0.2000 0.4613
vt 0.9583 0.2000 0.4613
vt 1.0000 0.2000 0.4613
vt 0.0417 0.2000 0.4613
vt -0.0000 0.2000 0.4613
vt 0.0833 0.2000 0.4613
vt 0.1250 0.2000 0.4613
vt 0.1667 0.2000 0.4613
vt 0.2083 0.2000 0.4613
vt 0.2500 0.2000 0.4613
vt 0.2917 0.2000 0.4613
vt 0.3333 0.2000 0.4613
vt 0.3750 0.2000 0.4613
vt 0.4167 0.2000 0.4613
vt 0.4583 0.2000 0.4613
vt 0.5000 0.2000 0.4613
vt 0.5417 0.2000 0.4613
vt 0.5833 0.2000 0.4613
vt 0.6250 0.2000 0.4613
vt 0.6667 0.2000 0.4613
vt 0.7083 0.2000 0.4613
vt 0.7917 0.4000 0.5960
vt 0.7500 0.4000 0.5960
vt 0.8333 0.4000 0.5960
vt 0.8750 0.4000 0.5960
vt 0.9167 0.4000 0.5960
vt 0.9583 0.4000 0.5960
vt 1.0000 0.4000 0.5960
vt 0.0417 0.4000 0.5960
vt -0.0000 0.4000 0.5960
vt 0.0833 0.4000 0.5960
vt 0.1250 0.4000 0.5960
vt 0.1667 0.4000 0.5960
vt 0.2083 0.4000 0.5960
vt 0.2500 0.4000 0.5960
vt 0.2917 0.4000 0.5960
vt 0.3333 0.4000 0.5960
vt 0.3750 0.4000 0.5960
vt 0.4167 0.4000 0.5960
vt 0.4583 0.4000 0.5960
vt 0.5000 0.4000 0.5960
vt 0.5417 0.4000 0.5960
vt 0.5833 0.4000 0.5960
vt 0.6250 0.4000 0.5960
vt 0.6667 0.4000 0.5960
vt 0.7083 0.4000 0.5960
vt 0.7917 0.6000 0.7307
vt 0.7500 0.6000 0.7307
vt 0.8333 0.6000 0.7307
vt 0.8750 0.6000 0.7307
vt 0.9167 0.6000 0.7307
vt 0.9583 0.6000 0.7307
vt 1.0000 0.6000 0.7307
vt 0.0417 0.6000 0.7307
vt -0.0000 0.6000 0.7307
vt 0.0833 0.6000 0.7307
vt 0.1250 0.6000 0.7307
vt 0.1667 0.6000 0.7307
vt 0.2083 0.6000 0.7307
vt 0.2500 0.6000 0.7307
vt 0.2917 0.6000 0.7307
vt 0.3333 0.6000 0.7307
vt 0.3750 0.6000 0.7307
vt 0.4167 0.6000 0.7307
vt 0.4583 0.6000 0.7307
vt 0.5000 0.6000 0.7307
vt 0.5417 0.6000 0.7307
vt 0.5833 0.6000 0.7307
vt 0.6250 0.6000 0.7307
vt 0.6667 0.6000 0.7307
vt 0.7083 0.6000 0.7307
vt 0.7917 0.8000 0.8653
vt 0.7500 0.8000 0.8653
vt 0.8333 0.8000 0.8653
vt 0.8750 0.8000 0.8653
vt 0.9167 0.8000 0.8653
vt 0.9583 0.8000 0.8653
vt 1.0000 0.8000 0.8653
vt 0.0417 0.8000 0.8653
vt -0.0000 0.8000 0.8653
vt 0.0833 0.8000 0.8653
vt 0.1250 0.8000 0.8653
vt 0.1667 0.8000 0.8653
vt 0.2083 0.8000 0.8653
vt 0.2500 0.8000 0.8653
vt 0.2917 0.8000 0.8653
vt 0.3333 0.8000 0.8653
vt 0.3750 0.8000 0.8653
vt 0.4167 0.8000 0.8653
vt 0.4583 0.8000 0.8653
vt 0.5000 0.8000 0.8653
vt 0.5417 0.8000 0.8653
vt 0.5833 0.8000 0.8653
vt 0.6250 0.8000 0.8653
vt 0.6667 0.8000 0.8653
vt 0.7083 0.8000 0.8653
vt 0.7917 1.0000 1.0000
vt 0.7500 1.0000 1.0000
vt 0.8333 1.0000 1.0000
vt 0.8750 1.0000 1.0000
vt 0.9167 1.0000 1.0000
vt 0.9583 1.0000 1.0000
vt 1.0000 1.0000 1.0000
vt 0.0417 1.0000 1.0000
vt -0.0000 1.0000 1.0000
vt 0.0833 1.0000 1.0000
vt 0.1250 1.0000 1.0000
vt 0.1667 1.0000 1.0000
vt 0.2083 1.0000 1.0000
vt 0.2500 1.0000 1.0000
vt 0.2917 1.0000 1.0000
vt 0.3333 1.0000 1.0000
vt 0.3750 1.0000 1.0000
vt 0.4167 1.0000 1.0000
vt 0.4583 1.0000 1.0000
vt 0.5000 1.0000 1.0000
vt 0.5417 1.0000 1.0000
vt 0.5833 1.0000 1.0000
vt 0.6250 1.0000 1.0000
vt 0.6667 1.0000 1.0000
vt 0.7083 1.0000 1.0000
vt 0.5000 1.0000 0.0000
vt 1.0076 1.0000 0.9319
# 153 texture coords

o Cone001
g Cone001
usemtl 01___Default
s 1
f 1/1/1 2/2/2 3/3/3 4/4/4 
f 1/1/1 5/5/5 6/6/6 2/2/2 
f 1/1/1 7/7/7 8/8/8 5/5/5 
f 1/1/1 9/9/9 10/10/10 7/11/7 
f 1/1/1 11/12/11 12/13/12 9/9/9 
f 1/1/1 13/14/13 14/15/14 11/12/11 
f 1/1/1 15/16/15 16/17/16 13/14/13 
f 1/1/1 17/18/17 18/19/18 15/16/15 
f 1/1/1 19/20/19 20/21/20 17/18/17 
f 1/1/1 21/22/21 22/23/22 19/20/19 
f 1/1/1 23/24/23 24/25/24 21/22/21 
f 1/1/1 4/4/4 25/26/25 23/24/23 
s 8
f 4/4/4 3/3/3 26/27/26 27/28/27 
f 3/3/3 2/2/2 28/29/28 26/27/26 
f 2/2/2 6/6/6 29/30/29 28/29/28 
f 6/6/6 5/5/5 30/31/30 29/30/29 
f 5/5/5 8/8/8 31/32/31 30/31/30 
f 8/8/8 7/7/7 32/33/32 31/32/31 
f 7/11/7 10/10/10 33/34/33 32/35/32 
f 10/10/10 9/9/9 34/36/34 33/34/33 
f 9/9/9 12/13/12 35/37/35 34/36/34 
f 12/13/12 11/12/11 36/38/36 35/37/35 
f 11/12/11 14/15/14 37/39/37 36/38/36 
f 14/15/14 13/14/13 38/40/38 37/39/37 
f 13/14/13 16/17/16 39/41/39 38/40/38 
f 16/17/16 15/16/15 40/42/40 39/41/39 
f 15/16/15 18/19/18 41/43/41 40/42/40 
f 18/19/18 17/18/17 42/44/42 41/43/41 
f 17/18/17 20/21/20 43/45/43 42/44/42 
f 20/21/20 19/20/19 44/46/44 43/45/43 
f 19/20/19 22/23/22 45/47/45 44/46/44 
f 22/23/22 21/22/21 46/48/46 45/47/45 
f 21/22/21 24/25/24 47/49/47 46/48/46 
f 24/25/24 23/24/23 48/50/48 47/49/47 
f 23/24/23 25/26/25 49/51/49 48/50/48 
f 25/26/25 4/4/4 27/28/27 49/51/49 
f 27/28/27 26/27/26 50/52/26 51/53/27 
f 26/27/26 28/29/28 52/54/28 50/52/26 
f 28/29/28 29/30/29 53/55/29 52/54/28 
f 29/30/29 30/31/30 54/56/30 53/55/29 
f 30/31/30 31/32/31 55/57/31 54/56/30 
f 31/32/31 32/33/32 56/58/32 55/57/31 
f 32/35/32 33/34/33 57/59/33 56/60/32 
f 33/34/33 34/36/34 58/61/34 57/59/33 
f 34/36/34 35/37/35 59/62/35 58/61/34 
f 35/37/35 36/38/36 60/63/36 59/62/35 
f 36/38/36 37/39/37 61/64/37 60/63/36 
f 37/39/37 38/40/38 62/65/38 61/64/37 
f 38/40/38 39/41/39 63/66/39 62/65/38 
f 39/41/39 40/42/40 64/67/40 63/66/39 
f 40/42/40 41/43/41 65/68/41 64/67/40 
f 41/43/41 42/44/42 66/69/42 65/68/41 
f 42/44/42 43/45/43 67/70/43 66/69/42 
f 43/45/43 44/46/44 68/71/44 67/70/43 
f 44/46/44 45/47/45 69/72/45 68/71/44 
f 45/47/45 46/48/46 70/73/46 69/72/45 
f 46/48/46 47/49/47 71/74/47 70/73/46 
f 47/49/47 48/50/48 72/75/48 71/74/47 
f 48/50/48 49/51/49 73/76/49 72/75/48 
f 49/51/49 27/28/27 51/53/27 73/76/49 
f 51/53/27 50/52/26 74/77/26 75/78/27 
f 50/52/26 52/54/28 76/79/28 74/77/26 
f 52/54/28 53/55/29 77/80/29 76/79/28 
f 53/55/29 54/56/30 78/81/30 77/80/29 
f 54/56/30 55/57/31 79/82/31 78/81/30 
f 55/57/31 56/58/32 80/83/32 79/82/31 
f 56/60/32 57/59/33 81/84/33 80/85/32 
f 57/59/33 58/61/34 82/86/34 81/84/33 
f 58/61/34 59/62/35 83/87/35 82/86/34 
f 59/62/35 60/63/36 84/88/36 83/87/35 
f 60/63/36 61/64/37 85/89/37 84/88/36 
f 61/64/37 62/65/38 86/90/38 85/89/37 
f 62/65/38 63/66/39 87/91/39 86/90/38 
f 63/66/39 64/67/40 88/92/40 87/91/39 
f 64/67/40 65/68/41 89/93/41 88/92/40 
f 65/68/41 66/69/42 90/94/42 89/93/41 
f 66/69/42 67/70/43 91/95/43 90/94/42 
f 67/70/43 68/71/44 92/96/44 91/95/43 
f 68/71/44 69/72/45 93/97/45 92/96/44 
f 69/72/45 70/73/46 94/98/46 93/97/45 
f 70/73/46 71/74/47 95/99/47 94/98/46 
f 71/74/47 72/75/48 96/100/48 95/99/47 
f 72/75/48 73/76/49 97/101/49 96/100/48 
f 73/76/49 51/53/27 75/78/27 97/101/49 
f 75/78/27 74/77/26 98/102/26 99/103/27 
f 74/77/26 76/79/28 100/104/28 98/102/26 
f 76/79/28 77/80/29 101/105/29 100/104/28 
f 77/80/29 78/81/30 102/106/30 101/105/29 
f 78/81/30 79/82/31 103/107/31 102/106/30 
f 79/82/31 80/83/32 104/108/32 103/107/31 
f 80/85/32 81/84/33 105/109/33 104/110/32 
f 81/84/33 82/86/34 106/111/34 105/109/33 
f 82/86/34 83/87/35 107/112/35 106/111/34 
f 83/87/35 84/88/36 108/113/36 107/112/35 
f 84/88/36 85/89/37 109/114/37 108/113/36 
f 85/89/37 86/90/38 110/115/38 109/114/37 
f 86/90/38 87/91/39 111/116/39 110/115/38 
f 87/91/39 88/92/40 112/117/40 111/116/39 
f 88/92/40 89/93/41 113/118/41 112/117/40 
f 89/93/41 90/94/42 114/119/42 113/118/41 
f 90/94/42 91/95/43 115/120/43 114/119/42 
f 91/95/43 92/96/44 116/121/44 115/120/43 
f 92/96/44 93/97/45 117/122/45 116/121/44 
f 93/97/45 94/98/46 118/123/46 117/122/45 
f 94/98/46 95/99/47 119/124/47 118/123/46 
f 95/99/47 96/100/48 120/125/48 119/124/47 
f 96/100/48 97/101/49 121/126/49 120/125/48 
f 97/101/49 75/78/27 99/103/27 121/126/49 
f 99/103/27 98/102/26 122/127/50 123/128/51 
f 98/102/26 100/104/28 124/129/52 122/127/50 
f 100/104/28 101/105/29 125/130/53 124/129/52 
f 101/105/29 102/106/30 126/131/54 125/130/53 
f 102/106/30 103/107/31 127/132/55 126/131/54 
f 103/107/31 104/108/32 128/133/56 127/132/55 
f 104/110/32 105/109/33 129/134/57 128/135/56 
f 105/109/33 106/111/34 130/136/58 129/134/57 
f 106/111/34 107/112/35 131/137/59 130/136/58 
f 107/112/35 108/113/36 132/138/60 131/137/59 
f 108/113/36 109/114/37 133/139/61 132/138/60 
f 109/114/37 110/115/38 134/140/62 133/139/61 
f 110/115/38 111/116/39 135/141/63 134/140/62 
f 111/116/39 112/117/40 136/142/64 135/141/63 
f 112/117/40 113/118/41 137/143/65 136/142/64 
f 113/118/41 114/119/42 138/144/66 137/143/65 
f 114/119/42 115/120/43 139/145/67 138/144/66 
f 115/120/43 116/121/44 140/146/68 139/145/67 
f 116/121/44 117/122/45 141/147/69 140/146/68 
f 117/122/45 118/123/46 142/148/70 141/147/69 
f 118/123/46 119/124/47 143/149/71 142/148/70 
f 119/124/47 120/125/48 144/150/72 143/149/71 
f 120/125/48 121/126/49 145/151/73 144/150/72 
f 121/126/49 99/103/27 123/128/51 145/151/73 
s 1
f 146/152/74 145/151/73 123/128/51 122/127/50 
f 146/152/74 122/127/50 124/129/52 125/130/53 
f 146/152/74 125/130/53 126/131/54 127/132/55 
f 146/152/74 127/132/55 128/133/56 129/153/57 
f 146/152/74 129/134/57 130/136/58 131/137/59 
f 146/152/74 131/137/59 132/138/60 133/139/61 
f 146/152/74 133/139/61 134/140/62 135/141/63 
f 146/152/74 135/141/63 136/142/64 137/143/65 
f 146/152/74 137/143/65 138/144/66 139/145/67 
f 146/152/74 139/145/67 140/146/68 141/147/69 
f 146/152/74 141/147/69 142/148/70 143/149/71 
f 146/152/74 143/149/71 144/150/72 145/151/73 
# 144 polygons

